<?xml version="1.0" encoding="utf-8"?>
<!-- Generator: Fusion 360, Shaper Origin Export Add-In, Version 1.8.0  -->
<svg xmlns="http://www.w3.org/2000/svg" xmlns:xlink="http://www.w3.org/1999/xlink" xmlns:shaper="http://www.shapertools.com/namespaces/shaper" shaper:fusionaddin="version:1.8.0" width="7.29996cm" height="7.29996cm" version="1.1" x="0cm" y="0cm" viewBox="0 0 7.29996 7.29996" enable-background="new 0 0 7.29996 7.29996" xml:space="preserve"><path d="M-2.4191328,-2.8656964 a0.7646222,0.7646222 0 1,1 1.5292444,0 a0.7646222,0.7646222 0 1,1 -1.5292444,0z" transform="matrix(1,0,0,-1,5.3044906,0.7842836)" fill="rgb(0,0,0)" stroke-linecap="round" stroke-linejoin="round" /><path d="M0.1400846,-6.0440264 A3.64998,3.64998 299.450577 0,1 0.2007064,-6.0090264 L-0.1400846,-5.418759 A2.9684364,2.9684364 300.6755741 0,0 -0.2007064,-5.453759 L0.1400846,-6.0440264z" transform="matrix(1,0,0,-1,5.3044906,0.7842836)" fill="rgb(0,0,0)" stroke-linecap="round" stroke-linejoin="round" /><path d="M0.2007064,0.2776337 A3.64998,3.64998 59.450577 0,1 0.1400846,0.3126337 L-0.2007064,-0.2776337 A2.9684364,2.9684364 60.6755741 0,0 -0.1400846,-0.3126337 L0.2007064,0.2776337z" transform="matrix(1,0,0,-1,5.3044906,0.7842836)" fill="rgb(0,0,0)" stroke-linecap="round" stroke-linejoin="round" /><path d="M-5.3043228,-2.8306964 A3.64998,3.64998 179.450577 0,1 -5.3043228,-2.9006964 L-4.6227407,-2.9006964 A2.9684364,2.9684364 180.6755741 0,0 -4.6227407,-2.8306964 L-5.3043228,-2.8306964z" transform="matrix(1,0,0,-1,5.3044906,0.7842836)" fill="rgb(0,0,0)" stroke-linecap="round" stroke-linejoin="round" /><path d="M-4.8328406,-4.6602916 A3.64998,3.64998 209.450577 0,1 -4.7978406,-4.7209133 L-4.2075732,-4.3801223 A2.9684364,2.9684364 210.6755741 0,0 -4.2425732,-4.3195005 L-4.8328406,-4.6602916z" transform="matrix(1,0,0,-1,5.3044906,0.7842836)" fill="rgb(0,0,0)" stroke-linecap="round" stroke-linejoin="round" /><path d="M-1.6195106,0.7841158 A3.64998,3.64998 89.450577 0,1 -1.6895106,0.7841158 L-1.6895106,0.1025337 A2.9684364,2.9684364 90.6755741 0,0 -1.6195106,0.1025337 L-1.6195106,0.7841158z" transform="matrix(1,0,0,-1,5.3044906,0.7842836)" fill="rgb(0,0,0)" stroke-linecap="round" stroke-linejoin="round" /><path d="M1.4888195,-4.7209133 A3.64998,3.64998 329.450577 0,1 1.5238195,-4.6602916 L0.9335521,-4.3195005 A2.9684364,2.9684364 330.6755741 0,0 0.8985521,-4.3801223 L1.4888195,-4.7209133z" transform="matrix(1,0,0,-1,5.3044906,0.7842836)" fill="rgb(0,0,0)" stroke-linecap="round" stroke-linejoin="round" /><path d="M-3.7493563,-2.8656964 a2.0948457,2.0948457 0 1,1 4.1896914,0 a2.0948457,2.0948457 0 1,1 -4.1896914,0z" transform="matrix(1,0,0,-1,5.3044906,0.7842836)" fill="rgb(0,0,0)" stroke-linecap="round" stroke-linejoin="round" /><path d="M-1.6895106,-6.5155086 A3.64998,3.64998 269.450577 0,1 -1.6195106,-6.5155086 L-1.6195106,-5.8339265 A2.9684364,2.9684364 270.6755741 0,0 -1.6895106,-5.8339265 L-1.6895106,-6.5155086z" transform="matrix(1,0,0,-1,5.3044906,0.7842836)" fill="rgb(0,0,0)" stroke-linecap="round" stroke-linejoin="round" /><path d="M1.5238195,-1.0711012 A3.64998,3.64998 29.450577 0,1 1.4888195,-1.0104794 L0.8985521,-1.3512704 A2.9684364,2.9684364 30.6755741 0,0 0.9335521,-1.4118922 L1.5238195,-1.0711012z" transform="matrix(1,0,0,-1,5.3044906,0.7842836)" fill="rgb(0,0,0)" stroke-linecap="round" stroke-linejoin="round" /><path d="M-4.7978406,-1.0104794 A3.64998,3.64998 149.450577 0,1 -4.8328406,-1.0711012 L-4.2425732,-1.4118922 A2.9684364,2.9684364 150.6755741 0,0 -4.2075732,-1.3512704 L-4.7978406,-1.0104794z" transform="matrix(1,0,0,-1,5.3044906,0.7842836)" fill="rgb(0,0,0)" stroke-linecap="round" stroke-linejoin="round" /><path d="M-3.5097276,-6.0090264 A3.64998,3.64998 239.450577 0,1 -3.4491058,-6.0440264 L-3.1083147,-5.453759 A2.9684364,2.9684364 240.6755741 0,0 -3.1689365,-5.418759 L-3.5097276,-6.0090264z" transform="matrix(1,0,0,-1,5.3044906,0.7842836)" fill="rgb(0,0,0)" stroke-linecap="round" stroke-linejoin="round" /><path d="M-3.4491058,0.3126337 A3.64998,3.64998 119.450577 0,1 -3.5097276,0.2776337 L-3.1689365,-0.3126337 A2.9684364,2.9684364 120.6755741 0,0 -3.1083147,-0.2776337 L-3.4491058,0.3126337z" transform="matrix(1,0,0,-1,5.3044906,0.7842836)" fill="rgb(0,0,0)" stroke-linecap="round" stroke-linejoin="round" /><path d="M1.9953016,-2.9006964 A3.64998,3.64998 359.450577 0,1 1.9953016,-2.8306964 L1.3137195,-2.8306964 A2.9684364,2.9684364 0.6755741 0,0 1.3137195,-2.9006964 L1.9953016,-2.9006964z" transform="matrix(1,0,0,-1,5.3044906,0.7842836)" fill="rgb(0,0,0)" stroke-linecap="round" stroke-linejoin="round" /><path d="M-4.43606,-2.8656964 a2.7815494,2.7815494 0 1,1 5.5630988,0 a2.7815494,2.7815494 0 1,1 -5.5630988,0z" transform="matrix(1,0,0,-1,5.3044906,0.7842836)" fill="rgb(0,0,0)" stroke-linecap="round" stroke-linejoin="round" /><path d="M-2.3491328,-2.8656964 a0.6946222,0.6946222 0 1,1 1.3892444,0 a0.6946222,0.6946222 0 1,1 -1.3892444,0z" transform="matrix(1,0,0,-1,5.3044906,0.7842836)" fill="rgb(255,255,255)" stroke="rgb(0,0,0)" stroke-width="0.0010cm" stroke-linecap="round" stroke-linejoin="round" /><path d="M-3.6793563,-2.8656964 a2.0248457,2.0248457 0 1,1 4.0496914,0 a2.0248457,2.0248457 0 1,1 -4.0496914,0z" transform="matrix(1,0,0,-1,5.3044906,0.7842836)" fill="rgb(255,255,255)" stroke="rgb(0,0,0)" stroke-width="0.0010cm" stroke-linecap="round" stroke-linejoin="round" /><path d="M-4.36606,-2.8656964 a2.7115494,2.7115494 0 1,1 5.4230988,0 a2.7115494,2.7115494 0 1,1 -5.4230988,0z" transform="matrix(1,0,0,-1,5.3044906,0.7842836)" fill="rgb(255,255,255)" stroke="rgb(0,0,0)" stroke-width="0.0010cm" stroke-linecap="round" stroke-linejoin="round" /></svg>