<?xml version="1.0" encoding="UTF-8" standalone="no"?>
<svg
   viewBox="0 0 793.7007874015749 1122.5196850393702"
   width="793.7007874015749"
   height="1122.5196850393702"
   version="1.1"
   id="svg204"
   sodipodi:docname="Push to Jett Button - Mask.svg"
   inkscape:version="1.4.3 (0d15f750, 2025-12-25)"
   xmlns:inkscape="http://www.inkscape.org/namespaces/inkscape"
   xmlns:sodipodi="http://sodipodi.sourceforge.net/DTD/sodipodi-0.dtd"
   xmlns="http://www.w3.org/2000/svg"
   xmlns:svg="http://www.w3.org/2000/svg">
  <sodipodi:namedview
     id="namedview204"
     pagecolor="#ffffff"
     bordercolor="#000000"
     borderopacity="0.25"
     inkscape:showpageshadow="2"
     inkscape:pageopacity="0.0"
     inkscape:pagecheckerboard="0"
     inkscape:deskcolor="#d1d1d1"
     inkscape:zoom="1.1995027"
     inkscape:cx="473.9464"
     inkscape:cy="598.99822"
     inkscape:window-width="1680"
     inkscape:window-height="1050"
     inkscape:window-x="0"
     inkscape:window-y="0"
     inkscape:window-maximized="0"
     inkscape:current-layer="g204" />
  <desc
     id="desc1">Jett Push Button.dxf - scale = 1.000000, origin = (0.000000, 0.000000), method = manual</desc>
  <defs
     id="defs4">
    <marker
       id="DistanceX"
       orient="auto"
       refX="0.0"
       refY="0.0"
       style="overflow:visible">
      <path
         d="M 3,-3 L -3,3 M 0,-5 L  0,5"
         style="stroke:#000000; stroke-width:0.5"
         id="path1" />
    </marker>
    <pattern
       id="Hatch"
       patternUnits="userSpaceOnUse"
       width="8"
       height="8"
       x="0"
       y="0">
      <path
         d="M8 4 l-4,4"
         stroke="#000000"
         stroke-width="0.25"
         linecap="square"
         id="path2" />
      <path
         d="M6 2 l-4,4"
         stroke="#000000"
         stroke-width="0.25"
         linecap="square"
         id="path3" />
      <path
         d="M4 0 l-4,4"
         stroke="#000000"
         stroke-width="0.25"
         linecap="square"
         id="path4" />
    </pattern>
    <symbol
       id="*Model_Space" />
    <symbol
       id="*Paper_Space" />
    <symbol
       id="*Paper_Space0" />
  </defs>
  <g
     inkscape:groupmode="layer"
     inkscape:label="0"
     id="g4" />
  <g
     inkscape:groupmode="layer"
     inkscape:label="Visible"
     id="g204">
    <path
       style="fill:none;stroke:#000000"
       d="m 570.76922,570.9972 -39.572,39.572"
       id="path5" />
    <path
       d="m 531.19704,610.56929 a 51.792,51.792 0 0 0 -1.17015,9.65543"
       style="fill:none;stroke:#000000"
       id="path6" />
    <path
       style="fill:none;stroke:#000000"
       d="m 580.42522,569.8272 -50.398,50.398"
       id="path7" />
    <path
       d="m 580.42473,569.82688 a 51.792,51.792 0 0 0 -9.65543,1.17015"
       style="fill:none;stroke:#000000"
       id="path8" />
    <path
       style="fill:none;stroke:#000000"
       d="m 633.45022,617.7562 -55.494,55.494"
       id="path9" />
    <path
       d="m 577.95658,673.24975 a 51.792,51.792 0 0 0 8.55734,-0.0721"
       style="fill:none;stroke:#000000"
       id="path10" />
    <path
       style="fill:none;stroke:#000000"
       d="m 633.37722,626.3142 -46.863,46.863"
       id="path11" />
    <path
       d="m 633.3777,626.31391 a 51.792,51.792 0 0 0 0.0721,-8.55734"
       style="fill:none;stroke:#000000"
       id="path12" />
    <path
       style="fill:none;stroke:#000000"
       d="m 603.61822,574.6282 -34.337,34.337"
       id="path13" />
    <path
       style="fill:none;stroke:#000000"
       d="m 609.12722,577.6042 -31.361,31.361"
       id="path14" />
    <path
       d="m 609.12723,577.60438 a 51.792,51.792 0 0 0 -5.5091,-2.97619"
       style="fill:none;stroke:#000000"
       id="path15" />
    <path
       style="fill:none;stroke:#000000"
       d="m 551.21522,627.0312 -16.387,16.387"
       id="path16" />
    <path
       d="m 534.8282,643.41812 a 51.792,51.792 0 0 0 2.97619,5.50909"
       style="fill:none;stroke:#000000"
       id="path17" />
    <path
       style="fill:none;stroke:#000000"
       d="m 551.21522,635.5162 -13.411,13.411"
       id="path18" />
    <path
       style="fill:none;stroke:#000000"
       d="m 577.54522,637.1802 -26.264,26.265"
       id="path19" />
    <path
       d="m 551.28111,663.44521 a 51.792,51.792 0 0 0 5.16718,3.31811"
       style="fill:none;stroke:#000000"
       id="path20" />
    <path
       style="fill:none;stroke:#000000"
       d="m 586.03122,637.1802 -29.583,29.583"
       id="path21" />
    <path
       style="fill:none;stroke:#000000"
       d="m 623.64522,591.0812 -17.884,17.884"
       id="path22" />
    <path
       style="fill:none;stroke:#000000"
       d="m 626.96322,596.2482 -15.173,15.174"
       id="path23" />
    <path
       d="m 626.96333,596.24828 a 51.792,51.792 0 0 0 -3.31811,-5.16718"
       style="fill:none;stroke:#000000"
       id="path24" />
    <path
       style="fill:none;stroke:#000000"
       d="m 551.21522,627.0312 v -18.066"
       id="path25" />
    <path
       style="fill:none;stroke:#000000"
       d="m 551.21522,637.1802 v -1.664"
       id="path26" />
    <path
       style="fill:none;stroke:#000000"
       d="m 577.54522,637.1802 h -26.33"
       id="path27" />
    <path
       style="fill:none;stroke:#000000"
       d="m 611.79022,637.1802 h -25.759"
       id="path28" />
    <path
       style="fill:none;stroke:#000000"
       d="m 551.21522,608.9652 h 18.066"
       id="path29" />
    <path
       style="fill:none;stroke:#000000"
       d="m 611.79022,611.4222 v 25.758"
       id="path30" />
    <path
       style="fill:none;stroke:#000000"
       d="m 577.76622,608.9652 h 27.995"
       id="path31" />
    <path
       d="m 527.12861,621.6006 a 54.672,54.672 0 0 0 109.344,0 54.672,54.672 0 0 0 -109.344,0 z"
       style="fill:none;stroke:#000000"
       id="path32" />
    <path
       d="m 556.74104,617.12256 c 0.10778,-9.3e-4 0.21556,-0.002 0.3233,-0.005 0.0854,-0.002 0.17077,-0.006 0.25602,-0.0116 0.0732,-0.005 0.14628,-0.0124 0.21878,-0.0233 0.0718,-0.0108 0.14294,-0.0252 0.21413,-0.0396"
       style="fill:none;stroke:#000000"
       id="path33" />
    <path
       d="m 557.75327,617.04342 c 0.0857,-0.0235 0.17148,-0.0471 0.25602,-0.0745 0.0827,-0.0268 0.16417,-0.0572 0.24438,-0.0908 0.0791,-0.0331 0.157,-0.0693 0.23275,-0.1094 0.0741,-0.0393 0.14613,-0.0823 0.21645,-0.12801 0.071,-0.0461 0.14019,-0.0949 0.20715,-0.14663 0.0667,-0.0515 0.13109,-0.10594 0.19318,-0.16292 0.0631,-0.0579 0.12373,-0.1184 0.18154,-0.18154 0.0588,-0.0642 0.11459,-0.1311 0.16758,-0.20016 0.0532,-0.0694 0.10356,-0.14089 0.15128,-0.21413 0.0469,-0.072 0.0913,-0.1457 0.13267,-0.22111 0.0416,-0.0758 0.08,-0.15333 0.11404,-0.23274 0.0339,-0.0792 0.0634,-0.16027 0.0908,-0.24206 0.0277,-0.0829 0.0532,-0.16663 0.0745,-0.25137 0.0216,-0.086 0.0389,-0.17312 0.0535,-0.26067 0.015,-0.0896 0.0272,-0.1796 0.0349,-0.26999 0.008,-0.0928 0.0109,-0.18607 0.014,-0.27929"
       style="fill:none;stroke:#000000"
       id="path34" />
    <path
       d="m 560.11797,613.97816 c -0.003,-0.0831 -0.006,-0.16613 -0.0116,-0.24904 -0.006,-0.0802 -0.0138,-0.16023 -0.0256,-0.23973 -0.0117,-0.0789 -0.0269,-0.1572 -0.0442,-0.23507 -0.0169,-0.0759 -0.0358,-0.15137 -0.0582,-0.22577 -0.0225,-0.0747 -0.0486,-0.1483 -0.0768,-0.22111 -0.0277,-0.0717 -0.0575,-0.14257 -0.0908,-0.2118 -0.0335,-0.0697 -0.0706,-0.1378 -0.1094,-0.20481 -0.039,-0.0673 -0.0797,-0.13351 -0.12335,-0.19784 -0.0439,-0.0647 -0.0907,-0.12752 -0.13965,-0.18852 -0.0475,-0.0592 -0.0972,-0.11672 -0.14896,-0.17223 -0.052,-0.0558 -0.10629,-0.10952 -0.16292,-0.1606 -0.0569,-0.0513 -0.11615,-0.0999 -0.17689,-0.14663 -0.0604,-0.0465 -0.12231,-0.0911 -0.18619,-0.13266 -0.065,-0.0423 -0.13214,-0.0813 -0.20016,-0.1187 -0.0694,-0.0381 -0.13971,-0.0746 -0.2118,-0.10707 -0.0733,-0.033 -0.14835,-0.0619 -0.22344,-0.0908"
       style="fill:none;stroke:#000000"
       id="path35" />
    <path
       d="m 558.12799,611.07581 c -0.098,-0.0322 -0.19595,-0.0644 -0.29559,-0.0908 -0.0972,-0.0258 -0.19602,-0.046 -0.29559,-0.0605 -0.10798,-0.0158 -0.21686,-0.0248 -0.32584,-0.0303 -0.1287,-0.006 -0.25753,-0.008 -0.38636,-0.009"
       style="fill:none;stroke:#000000"
       id="path36" />
    <path
       style="fill:none;stroke:#000000"
       d="m 556.82422,610.8852 h -2.621"
       id="path37" />
    <path
       d="m 554.20279,610.88496 c -0.0952,-0.002 -0.1904,-0.004 -0.28518,0.002 -0.0805,0.006 -0.16072,0.0173 -0.23973,0.0349 -0.0646,0.0144 -0.12835,0.0328 -0.18852,0.0605 -0.0516,0.0238 -0.10055,0.0544 -0.14198,0.0931 -0.0401,0.0374 -0.0732,0.0824 -0.10008,0.13034 -0.0304,0.0543 -0.0531,0.11247 -0.0698,0.17223 -0.0198,0.0706 -0.0314,0.14343 -0.0372,0.21646 -0.007,0.0867 -0.006,0.17368 -0.005,0.26067"
       style="fill:none;stroke:#000000"
       id="path38" />
    <path
       style="fill:none;stroke:#000000"
       d="m 553.13522,611.8552 v 8.995"
       id="path39" />
    <path
       d="m 553.13558,620.85006 c 0.003,0.0579 0.006,0.11584 0.014,0.17333 0.007,0.0519 0.0172,0.10346 0.0326,0.15361 0.0136,0.0443 0.0311,0.0875 0.0535,0.12801 0.0208,0.0375 0.0458,0.0727 0.0745,0.10473 0.0276,0.0308 0.0587,0.0587 0.0931,0.0815 0.0353,0.0233 0.0741,0.0412 0.11405,0.0558 0.0439,0.0161 0.0891,0.0282 0.13499,0.0349 0.0507,0.007 0.10214,0.008 0.15361,0.009"
       style="fill:none;stroke:#000000"
       id="path40" />
    <path
       d="m 553.80589,621.59129 c 0.0553,-8.6e-4 0.1106,-0.002 0.16525,-0.009 0.0468,-0.007 0.0931,-0.018 0.13732,-0.0349 0.0403,-0.0154 0.0789,-0.0355 0.11405,-0.0605 0.0332,-0.0236 0.0634,-0.0518 0.0884,-0.0838 0.027,-0.0345 0.048,-0.0736 0.0652,-0.11404 0.0201,-0.0474 0.0349,-0.0966 0.0466,-0.14663 0.0135,-0.0582 0.0228,-0.11743 0.0279,-0.17689 0.006,-0.0704 0.007,-0.14108 0.007,-0.2118"
       style="fill:none;stroke:#000000"
       id="path41" />
    <path
       style="fill:none;stroke:#000000"
       d="m 554.45722,620.7532 v -3.631"
       id="path42" />
    <path
       style="fill:none;stroke:#000000"
       d="m 554.45722,617.1222 h 2.284"
       id="path43" />
    <path
       style="fill:none;stroke:#000000"
       d="m 554.45722,612.2072 h 2.316"
       id="path44" />
    <path
       d="m 556.77366,612.20696 c 0.0768,0.002 0.15358,0.004 0.23017,0.009 0.0724,0.005 0.14457,0.0129 0.21645,0.0233 0.068,0.01 0.13566,0.0217 0.20249,0.0372 0.0643,0.015 0.12788,0.0334 0.19085,0.0535 0.0606,0.0194 0.12065,0.0405 0.17921,0.0652 0.0566,0.0239 0.11178,0.0512 0.16526,0.0815 0.0529,0.0299 0.10403,0.0627 0.15361,0.0978 0.0483,0.0341 0.0951,0.0705 0.13965,0.10939 0.0442,0.0386 0.0862,0.0798 0.12568,0.12335 0.0389,0.0429 0.0753,0.0881 0.10939,0.135 0.0337,0.0463 0.0652,0.0943 0.0931,0.1443 0.028,0.0503 0.0524,0.10268 0.0745,0.15594 0.0228,0.0549 0.0431,0.11077 0.0605,0.16758 0.018,0.0589 0.0328,0.11872 0.0442,0.17921 0.0118,0.0623 0.02,0.12534 0.0256,0.18853 0.006,0.0666 0.009,0.13337 0.0116,0.20016"
       style="fill:none;stroke:#000000"
       id="path45" />
    <path
       d="m 558.79597,613.97816 c -0.003,0.0675 -0.006,0.1351 -0.0116,0.20249 -0.005,0.064 -0.0136,0.1278 -0.0256,0.19085 -0.0116,0.0604 -0.0268,0.12016 -0.0442,0.17921 -0.017,0.0575 -0.0361,0.11426 -0.0582,0.16991 -0.0218,0.0548 -0.0466,0.10857 -0.0745,0.16059 -0.0275,0.0513 -0.058,0.10089 -0.0908,0.14896 -0.0325,0.0476 -0.0672,0.0937 -0.10473,0.13732 -0.0386,0.0449 -0.0802,0.0873 -0.12336,0.12801 -0.0432,0.0408 -0.088,0.08 -0.13499,0.11637 -0.0468,0.0362 -0.0958,0.0697 -0.14663,0.10008 -0.0513,0.0306 -0.10438,0.058 -0.15827,0.0838 -0.0549,0.0263 -0.11061,0.0508 -0.16757,0.0721 -0.0586,0.0219 -0.11856,0.0404 -0.17922,0.0559 -0.063,0.0161 -0.12673,0.0289 -0.19085,0.0396 -0.0664,0.0111 -0.13316,0.0198 -0.20016,0.0256 -0.0704,0.006 -0.14112,0.009 -0.2118,0.0116"
       style="fill:none;stroke:#000000"
       id="path46" />
    <path
       style="fill:none;stroke:#000000"
       d="m 556.87322,615.8002 h -2.416"
       id="path47" />
    <path
       style="fill:none;stroke:#000000"
       d="m 554.45722,615.8002 v -3.593"
       id="path48" />
    <path
       d="m 562.44543,610.88496 c -0.0514,0.002 -0.10287,0.004 -0.15361,0.0116 -0.0459,0.007 -0.0913,0.0186 -0.13499,0.0349 -0.0401,0.015 -0.0789,0.034 -0.11405,0.0582 -0.0344,0.0237 -0.0655,0.0523 -0.0931,0.0838 -0.0288,0.0328 -0.0538,0.0688 -0.0745,0.10707 -0.0226,0.042 -0.0399,0.0868 -0.0535,0.13266 -0.0151,0.051 -0.0257,0.10329 -0.0326,0.15594 -0.008,0.0594 -0.0109,0.11931 -0.014,0.17922"
       style="fill:none;stroke:#000000"
       id="path49" />
    <path
       style="fill:none;stroke:#000000"
       d="m 561.77522,611.6482 v 6.013"
       id="path50" />
    <path
       d="m 561.77512,617.66088 c 1.1e-4,0.0859 2.2e-4,0.17182 0.002,0.25767 0.002,0.0776 0.005,0.15517 0.009,0.23275 0.003,0.0699 0.007,0.13984 0.014,0.20947 0.006,0.0607 0.0139,0.12119 0.0233,0.18154 0.0179,0.11606 0.0404,0.23164 0.0722,0.34447 0.0329,0.11679 0.0758,0.23063 0.1187,0.34446"
       style="fill:none;stroke:#000000"
       id="path51" />
    <path
       d="m 562.01485,619.23124 c 0.0374,0.0906 0.0747,0.18131 0.11637,0.26999 0.0406,0.0864 0.0852,0.17083 0.13267,0.25369 0.0462,0.0807 0.0951,0.15997 0.14663,0.2374 0.0514,0.0773 0.1056,0.15276 0.16292,0.22576 0.0561,0.0714 0.11521,0.14048 0.17689,0.20715 0.0619,0.0669 0.12629,0.13135 0.19318,0.19318 0.0667,0.0616 0.13583,0.12065 0.20714,0.17689 0.0724,0.0571 0.14704,0.11131 0.22344,0.16292 0.0765,0.0517 0.15487,0.10079 0.23507,0.14663 0.079,0.0451 0.15973,0.0871 0.24206,0.12568 0.0825,0.0386 0.1665,0.0739 0.25137,0.10706 0.0851,0.0333 0.17094,0.0646 0.25834,0.0908 0.0888,0.0267 0.17923,0.0481 0.26999,0.0675 0.0911,0.0195 0.18259,0.037 0.27464,0.0512 0.0942,0.0146 0.18893,0.0258 0.28395,0.0326 0.0976,0.007 0.19542,0.009 0.29326,0.0116"
       style="fill:none;stroke:#000000"
       id="path52" />
    <path
       d="m 565.48277,621.59129 c 0.13442,-0.005 0.26884,-0.0105 0.40265,-0.0233 0.12799,-0.0122 0.25542,-0.0312 0.38171,-0.0559 0.12233,-0.0239 0.24361,-0.0531 0.36308,-0.0884 0.11673,-0.0346 0.23173,-0.075 0.34446,-0.12103 0.11028,-0.045 0.21837,-0.0954 0.32352,-0.15128 0.10483,-0.0558 0.20673,-0.11709 0.3049,-0.18387 0.0984,-0.067 0.19313,-0.13945 0.28395,-0.21646 0.0926,-0.0785 0.1811,-0.16168 0.26533,-0.24904 0.0844,-0.0875 0.16442,-0.17919 0.23973,-0.27464 0.0748,-0.0949 0.14499,-0.19342 0.20947,-0.29558 0.0645,-0.10225 0.12338,-0.2081 0.17689,-0.31654 0.0543,-0.11004 0.10311,-0.22276 0.14663,-0.33748 0.0443,-0.11681 0.0831,-0.2357 0.11637,-0.3561 0.0345,-0.12504 0.0631,-0.2517 0.0861,-0.37938 0.0238,-0.13179 0.0418,-0.26466 0.0535,-0.39799 0.0123,-0.13932 0.0178,-0.27913 0.0233,-0.41895"
       style="fill:none;stroke:#000000"
       id="path53" />
    <path
       style="fill:none;stroke:#000000"
       d="m 569.20422,617.7252 v -5.962"
       id="path54" />
    <path
       d="m 569.20438,611.7636 c -5.6e-4,-0.075 -10e-4,-0.1499 -0.007,-0.22462 -0.005,-0.0634 -0.0138,-0.12658 -0.0279,-0.18853 -0.012,-0.0524 -0.0278,-0.1039 -0.0489,-0.15361 -0.0178,-0.0421 -0.0394,-0.0829 -0.0675,-0.1187 -0.0257,-0.0328 -0.0569,-0.0613 -0.0908,-0.0861 -0.0347,-0.0254 -0.0721,-0.0469 -0.11172,-0.0628 -0.0438,-0.0177 -0.0904,-0.0286 -0.13732,-0.0349 -0.0533,-0.007 -0.10692,-0.008 -0.1606,-0.009"
       style="fill:none;stroke:#000000"
       id="path55" />
    <path
       d="m 568.55269,610.88496 c -0.0538,8.4e-4 -0.10751,0.002 -0.16059,0.009 -0.0477,0.007 -0.0948,0.0192 -0.13965,0.0372 -0.0404,0.0163 -0.0789,0.0372 -0.11404,0.0628 -0.0347,0.0253 -0.0662,0.0551 -0.0931,0.0884 -0.0291,0.0361 -0.0529,0.0765 -0.0721,0.11871 -0.0224,0.0492 -0.0386,0.10102 -0.0512,0.15361 -0.0147,0.0613 -0.0245,0.12359 -0.0303,0.18619 -0.007,0.0734 -0.008,0.14728 -0.009,0.22111"
       style="fill:none;stroke:#000000"
       id="path56" />
    <path
       style="fill:none;stroke:#000000"
       d="m 567.88222,611.7622 v 5.818"
       id="path57" />
    <path
       d="m 567.88238,617.57987 c 6.9e-4,0.071 10e-4,0.14202 10e-6,0.213 -10e-4,0.0629 -0.004,0.1257 -0.007,0.18852 -0.003,0.0559 -0.005,0.11178 -0.009,0.16758 -0.003,0.0482 -0.008,0.0963 -0.014,0.1443 -0.011,0.0856 -0.0276,0.17075 -0.0512,0.2537 -0.0222,0.0781 -0.0507,0.15425 -0.0791,0.23041"
       style="fill:none;stroke:#000000"
       id="path58" />
    <path
       d="m 567.72179,618.77738 c -0.0492,0.11209 -0.0984,0.22419 -0.15827,0.33051 -0.058,0.10301 -0.12607,0.20061 -0.20016,0.29325 -0.0722,0.0903 -0.15008,0.17579 -0.23507,0.2537 -0.086,0.0789 -0.17933,0.1499 -0.27697,0.21413 -0.0982,0.0646 -0.20087,0.12233 -0.30723,0.17223 -0.10677,0.0501 -0.2173,0.0923 -0.3305,0.12568 -0.11573,0.0341 -0.23427,0.059 -0.35377,0.0745 -0.12497,0.0162 -0.25101,0.0221 -0.37705,0.0279"
       style="fill:none;stroke:#000000"
       id="path59" />
    <path
       d="m 565.48277,620.26929 c -0.11207,-0.004 -0.22414,-0.007 -0.33515,-0.0209 -0.10669,-0.013 -0.21241,-0.035 -0.31654,-0.0628 -0.1014,-0.0271 -0.2013,-0.0596 -0.29791,-0.10008 -0.0963,-0.0403 -0.18937,-0.0886 -0.2793,-0.14198 -0.0899,-0.0534 -0.17661,-0.11197 -0.25835,-0.17688 -0.0808,-0.0642 -0.15678,-0.1346 -0.22809,-0.20947 -0.0731,-0.0767 -0.14127,-0.15818 -0.20249,-0.24439 -0.0631,-0.0889 -0.11885,-0.18295 -0.17456,-0.27697"
       style="fill:none;stroke:#000000"
       id="path60" />
    <path
       d="m 563.39038,619.03573 c -0.0534,-0.0968 -0.10683,-0.19364 -0.14895,-0.29558 -0.039,-0.0943 -0.0683,-0.19307 -0.0885,-0.29327 -0.0107,-0.0532 -0.0188,-0.10681 -0.0256,-0.16059 -0.008,-0.0634 -0.0142,-0.12708 -0.0186,-0.19085 -0.005,-0.0728 -0.008,-0.1458 -0.009,-0.21878 -0.002,-0.083 -0.002,-0.16602 -0.002,-0.24904"
       style="fill:none;stroke:#000000"
       id="path61" />
    <path
       style="fill:none;stroke:#000000"
       d="m 563.09722,617.6272 v -5.945"
       id="path62" />
    <path
       d="m 563.09712,611.68259 c -0.002,-0.0643 -0.003,-0.12849 -0.009,-0.19249 -0.005,-0.0557 -0.0138,-0.11114 -0.0279,-0.16525 -0.0125,-0.048 -0.0295,-0.095 -0.0512,-0.13965 -0.0193,-0.0396 -0.0423,-0.0774 -0.0698,-0.11172 -0.0269,-0.0335 -0.0581,-0.0637 -0.0931,-0.0884 -0.0343,-0.0242 -0.0723,-0.0431 -0.11172,-0.0582 -0.0436,-0.0167 -0.089,-0.0286 -0.13499,-0.0349 -0.0507,-0.007 -0.10217,-0.007 -0.15362,-0.007"
       style="fill:none;stroke:#000000"
       id="path63" />
    <path
       d="m 571.15945,613.71748 c 0.005,0.11352 0.0104,0.22703 0.0233,0.33981 0.0128,0.11201 0.0333,0.2233 0.0605,0.33283 0.0271,0.10892 0.0607,0.21611 0.10008,0.32119 0.0399,0.10644 0.0855,0.21073 0.13732,0.31188 0.0514,0.10035 0.10898,0.19761 0.17223,0.29093 0.0615,0.0907 0.12838,0.1777 0.20017,0.26068 0.0708,0.0819 0.14638,0.1598 0.22809,0.23041 0.082,0.0709 0.17017,0.13436 0.25835,0.19784"
       style="fill:none;stroke:#000000"
       id="path64" />
    <path
       d="m 572.33948,616.00305 c 0.0785,0.0522 0.15705,0.10437 0.23972,0.14896 0.091,0.049 0.18696,0.0889 0.28396,0.12568 0.10644,0.0403 0.21408,0.077 0.32351,0.10706 0.12112,0.0333 0.24443,0.0585 0.36774,0.0838"
       style="fill:none;stroke:#000000"
       id="path65" />
    <path
       style="fill:none;stroke:#000000"
       d="m 573.55422,616.4682 1.729,0.371"
       id="path66" />
    <path
       d="m 575.89127,617.01529 a 2.578461,2.578461 0 0 0 -0.60842,-0.17552"
       style="fill:none;stroke:#000000"
       id="path67" />
    <path
       d="m 575.89118,617.0155 c 0.0673,0.0383 0.13461,0.0767 0.19784,0.12102 0.0626,0.0439 0.12127,0.0938 0.17688,0.14663 0.0562,0.0534 0.10931,0.10992 0.15827,0.16991 0.0504,0.0617 0.0964,0.12714 0.13732,0.19551 0.0412,0.0688 0.0774,0.14057 0.10939,0.21412 0.0317,0.0728 0.0594,0.14723 0.0815,0.22344 0.0221,0.0762 0.0386,0.15415 0.0489,0.23274 0.0105,0.0802 0.0146,0.16115 0.0186,0.24206"
       style="fill:none;stroke:#000000"
       id="path68" />
    <path
       d="m 576.81984,618.56093 c -0.006,0.0981 -0.0129,0.19621 -0.0279,0.29326 -0.0145,0.0939 -0.037,0.18686 -0.0675,0.27697 -0.0301,0.089 -0.068,0.17518 -0.11172,0.25835 -0.0443,0.0843 -0.0946,0.16556 -0.15129,0.24205 -0.056,0.0756 -0.1184,0.14653 -0.18619,0.2118 -0.0656,0.0632 -0.13634,0.12104 -0.2118,0.17223 -0.0734,0.0498 -0.15136,0.0933 -0.23275,0.12801 -0.0837,0.0357 -0.17101,0.0621 -0.25835,0.0884"
       style="fill:none;stroke:#000000"
       id="path69" />
    <path
       d="m 574.89969,620.29728 a 4.370782,4.370782 0 0 0 0.67263,-0.0652"
       style="fill:none;stroke:#000000"
       id="path70" />
    <path
       style="fill:none;stroke:#000000"
       d="m 574.89922,620.2972 -0.961,10e-4"
       id="path71" />
    <path
       d="m 573.93819,620.29847 c -0.0667,-5.4e-4 -0.13332,-10e-4 -0.19991,-0.004 -0.059,-0.002 -0.11802,-0.006 -0.17689,-0.0116 -0.0507,-0.005 -0.10134,-0.0112 -0.15128,-0.0209 -0.043,-0.008 -0.0855,-0.0193 -0.12801,-0.0303"
       style="fill:none;stroke:#000000"
       id="path72" />
    <path
       d="m 573.2821,620.23205 c -0.0748,-0.0279 -0.14959,-0.0557 -0.22111,-0.0908 -0.0709,-0.0347 -0.13868,-0.0765 -0.20249,-0.12336 -0.0653,-0.0479 -0.12649,-0.1012 -0.18387,-0.15827 -0.0593,-0.059 -0.11451,-0.12201 -0.16525,-0.18852 -0.0507,-0.0664 -0.0969,-0.13636 -0.13732,-0.20947 -0.0388,-0.0702 -0.0722,-0.1434 -0.10008,-0.21878 -0.0271,-0.0734 -0.049,-0.14897 -0.0628,-0.22577 -0.0139,-0.0767 -0.0197,-0.15474 -0.0256,-0.23274"
       style="fill:none;stroke:#000000"
       id="path73" />
    <path
       d="m 572.19983,618.64007 a 0.790877,0.790877 0 0 0 -0.0163,0.1443"
       style="fill:none;stroke:#000000"
       id="path74" />
    <path
       style="fill:none;stroke:#000000"
       d="m 572.20022,618.6402 -10e-4,-0.127"
       id="path75" />
    <path
       d="m 572.19964,618.51274 c -0.003,-0.0478 -0.006,-0.0955 -0.0138,-0.14266 -0.007,-0.0427 -0.0178,-0.0849 -0.0326,-0.12568 -0.0147,-0.0405 -0.0333,-0.0797 -0.0559,-0.11638 -0.0221,-0.0359 -0.0479,-0.0694 -0.0768,-0.10008 -0.0283,-0.0301 -0.0595,-0.0574 -0.0931,-0.0815 -0.0328,-0.0235 -0.0678,-0.044 -0.10473,-0.0605 -0.0373,-0.0167 -0.0764,-0.0294 -0.11637,-0.0372 -0.0421,-0.008 -0.0851,-0.0111 -0.12801,-0.014"
       style="fill:none;stroke:#000000"
       id="path76" />
    <path
       d="m 571.5784,617.83476 c -0.0516,0.004 -0.10327,0.008 -0.15362,0.0186 -0.0481,0.0104 -0.0951,0.0272 -0.13965,0.0489 -0.0431,0.021 -0.084,0.0466 -0.12102,0.0768 -0.0391,0.032 -0.074,0.0692 -0.10474,0.1094 -0.0322,0.0422 -0.0599,0.0877 -0.0838,0.13499 -0.0253,0.0501 -0.0464,0.10229 -0.0628,0.15594 -0.0174,0.057 -0.0296,0.11553 -0.0372,0.17456 -0.008,0.0656 -0.0112,0.13171 -0.014,0.19783"
       style="fill:none;stroke:#000000"
       id="path77" />
    <path
       d="m 570.86154,618.75178 c 0.007,0.1417 0.015,0.2834 0.0349,0.4236 0.0194,0.13615 0.0505,0.27088 0.0908,0.40265 0.0404,0.1322 0.0901,0.26143 0.14896,0.38636 0.0595,0.12639 0.12836,0.24839 0.20481,0.36541 0.0761,0.11652 0.1598,0.22811 0.25137,0.33283 0.0903,0.1033 0.18836,0.19992 0.29326,0.28861 0.10375,0.0877 0.21422,0.16765 0.3305,0.2374 0.11929,0.0716 0.24468,0.13236 0.37007,0.19317"
       style="fill:none;stroke:#000000"
       id="path78" />
    <path
       d="m 572.58612,621.38202 a 4.439567,4.439567 0 0 0 1.33836,0.20908"
       style="fill:none;stroke:#000000"
       id="path79" />
    <path
       style="fill:none;stroke:#000000"
       d="m 573.92422,621.5912 h 1.044"
       id="path80" />
    <path
       d="m 574.96867,621.59129 c 0.11523,-0.005 0.23045,-0.0106 0.3453,-0.0209 0.10994,-0.01 0.21954,-0.0245 0.32818,-0.0442 0.1041,-0.0189 0.20732,-0.0424 0.30955,-0.0698 0.0991,-0.0266 0.19729,-0.0569 0.29326,-0.0931 0.0943,-0.0355 0.18642,-0.0767 0.27697,-0.12103 0.0889,-0.0436 0.17631,-0.0903 0.26067,-0.14198 0.0837,-0.0513 0.16436,-0.10752 0.24206,-0.16758 0.0784,-0.0606 0.15377,-0.1251 0.22576,-0.19317 0.0718,-0.0679 0.14025,-0.13932 0.20482,-0.21413 0.0629,-0.0729 0.1221,-0.14895 0.17688,-0.22809 0.0549,-0.0794 0.10541,-0.1618 0.15129,-0.24671 0.0457,-0.0846 0.0869,-0.17169 0.12336,-0.26068 0.0374,-0.0913 0.0699,-0.18465 0.0978,-0.27929 0.0287,-0.0973 0.0524,-0.19603 0.0722,-0.29559 0.0204,-0.10319 0.0365,-0.20729 0.0465,-0.31188 0.0105,-0.10903 0.0146,-0.2186 0.0186,-0.32817"
       style="fill:none;stroke:#000000"
       id="path81" />
    <path
       d="m 578.14184,618.5749 c -0.003,-0.0948 -0.006,-0.18951 -0.014,-0.28396 -0.007,-0.092 -0.0193,-0.18366 -0.0349,-0.27464 -0.0152,-0.0883 -0.034,-0.17604 -0.0559,-0.263 -0.0213,-0.0848 -0.0456,-0.16888 -0.0745,-0.25136 -0.0287,-0.0821 -0.062,-0.16266 -0.0978,-0.24206 -0.0357,-0.0792 -0.0738,-0.15717 -0.11637,-0.23275 -0.0428,-0.0759 -0.0899,-0.14944 -0.13965,-0.22111 -0.0499,-0.0719 -0.10248,-0.14204 -0.15827,-0.20947 -0.056,-0.0677 -0.11531,-0.13272 -0.17688,-0.1955 -0.0611,-0.0623 -0.12452,-0.1225 -0.19086,-0.17922 -0.0664,-0.0568 -0.13577,-0.11011 -0.20714,-0.16059 -0.0724,-0.0512 -0.1469,-0.0995 -0.22344,-0.14431 -0.0773,-0.0452 -0.15668,-0.0869 -0.2374,-0.12568 -0.0824,-0.0396 -0.16614,-0.0764 -0.25136,-0.10939 -0.0879,-0.0341 -0.17727,-0.0642 -0.26766,-0.0908 -0.0932,-0.0274 -0.1874,-0.0509 -0.28162,-0.0745"
       style="fill:none;stroke:#000000"
       id="path82" />
    <path
       style="fill:none;stroke:#000000"
       d="m 575.61422,615.5162 -1.74,-0.355"
       id="path83" />
    <path
       d="m 573.31232,615.01398 a 3.774913,3.774913 0 0 0 0.56168,0.1472"
       style="fill:none;stroke:#000000"
       id="path84" />
    <path
       d="m 573.31236,615.01388 c -0.0609,-0.0298 -0.12186,-0.0597 -0.17922,-0.0954 -0.0559,-0.0348 -0.10839,-0.0753 -0.15827,-0.1187 -0.0506,-0.044 -0.0985,-0.0911 -0.14197,-0.14197 -0.0447,-0.0524 -0.0847,-0.10888 -0.12103,-0.16758 -0.0366,-0.0591 -0.0693,-0.12052 -0.0978,-0.18387 -0.0285,-0.0634 -0.0525,-0.12876 -0.0721,-0.19551 -0.0197,-0.0671 -0.0349,-0.13563 -0.0442,-0.20481 -0.01,-0.0724 -0.013,-0.14561 -0.0163,-0.21879"
       style="fill:none;stroke:#000000"
       id="path85" />
    <path
       d="m 572.48145,613.68722 c 0.006,-0.10225 0.012,-0.20451 0.0303,-0.30489 0.0171,-0.0939 0.0449,-0.18607 0.0815,-0.27464 0.0357,-0.0866 0.0797,-0.16975 0.13266,-0.24672 0.0534,-0.0775 0.11577,-0.14882 0.18387,-0.21412 0.0688,-0.0659 0.14334,-0.12577 0.22344,-0.17689 0.0813,-0.0519 0.16838,-0.0948 0.25835,-0.13034 0.095,-0.0375 0.19331,-0.0667 0.29326,-0.0861 0.10734,-0.0208 0.21659,-0.0302 0.32584,-0.0396"
       style="fill:none;stroke:#000000"
       id="path86" />
    <path
       style="fill:none;stroke:#000000"
       d="m 574.01022,612.2142 0.804,-0.015"
       id="path87" />
    <path
       style="fill:none;stroke:#000000"
       d="m 574.81422,612.1992 h 0.08"
       id="path88" />
    <path
       d="m 574.8946,612.19961 c 0.10686,0.002 0.21372,0.005 0.31929,0.019 0.0969,0.0129 0.19273,0.0355 0.28628,0.0652 0.0874,0.0277 0.17291,0.0617 0.25369,0.10473 0.0785,0.0418 0.15254,0.0921 0.22111,0.14896 0.0686,0.0568 0.13165,0.1201 0.18853,0.18852 0.0596,0.0717 0.11243,0.14912 0.15826,0.23042 0.049,0.087 0.0901,0.17839 0.12336,0.27231 0.0364,0.10276 0.0636,0.20848 0.0908,0.31421"
       style="fill:none;stroke:#000000"
       id="path89" />
    <path
       d="m 576.53589,613.54292 c 0.0145,0.0454 0.029,0.0908 0.0466,0.13499 0.0159,0.04 0.0344,0.079 0.0559,0.11638 0.0192,0.0334 0.0409,0.0654 0.0652,0.0954 0.0232,0.0286 0.0487,0.0554 0.0768,0.0791 0.026,0.022 0.0541,0.0414 0.0838,0.0582 0.0303,0.0171 0.0622,0.0314 0.0954,0.0419 0.0347,0.011 0.0708,0.0177 0.10706,0.0209 0.0379,0.003 0.076,0.003 0.11405,0.002"
       style="fill:none;stroke:#000000"
       id="path90" />
    <path
       d="m 577.1806,614.0922 c 0.0468,-0.003 0.0936,-0.006 0.13965,-0.014 0.043,-0.008 0.0852,-0.0204 0.12568,-0.0372 0.0392,-0.0163 0.0768,-0.0365 0.11172,-0.0605 0.0354,-0.0243 0.0681,-0.0526 0.0978,-0.0838 0.0299,-0.0313 0.0567,-0.0656 0.0791,-0.10241 0.0228,-0.0374 0.041,-0.0774 0.0559,-0.1187 0.0156,-0.0431 0.0274,-0.0876 0.0349,-0.13267 0.008,-0.0484 0.011,-0.0975 0.014,-0.14663"
       style="fill:none;stroke:#000000"
       id="path91" />
    <path
       d="m 577.83927,613.39629 c -0.006,-0.0842 -0.0117,-0.16845 -0.0256,-0.25136 -0.0162,-0.0963 -0.0433,-0.19091 -0.0745,-0.28396 -0.0335,-0.1 -0.0716,-0.19822 -0.11637,-0.29325 -0.0464,-0.0985 -0.10002,-0.19355 -0.15362,-0.28861"
       style="fill:none;stroke:#000000"
       id="path92" />
    <path
       d="m 577.4692,612.27911 c -0.0686,-0.10754 -0.13717,-0.21508 -0.21412,-0.31653 -0.0744,-0.0981 -0.15658,-0.19043 -0.24439,-0.27697 -0.0863,-0.0851 -0.17802,-0.16447 -0.27464,-0.2374 -0.0971,-0.0733 -0.1991,-0.14001 -0.30489,-0.20017 -0.10508,-0.0598 -0.21388,-0.11302 -0.32585,-0.15826 -0.10988,-0.0444 -0.22281,-0.0811 -0.33748,-0.11172 -0.11485,-0.0307 -0.23144,-0.0553 -0.34912,-0.0698 -0.12026,-0.0148 -0.24167,-0.019 -0.36309,-0.0233"
       style="fill:none;stroke:#000000"
       id="path93" />
    <path
       style="fill:none;stroke:#000000"
       d="m 575.05522,610.8852 h -0.096"
       id="path94" />
    <path
       style="fill:none;stroke:#000000"
       d="m 574.95922,610.8852 -1.037,0.05"
       id="path95" />
    <path
       d="m 573.92218,610.93544 c -0.098,0.008 -0.19597,0.0156 -0.29329,0.0286 -0.0945,0.0127 -0.18842,0.0304 -0.28162,0.0512 -0.091,0.0203 -0.18133,0.0436 -0.26999,0.0721 -0.086,0.0276 -0.17042,0.0602 -0.25369,0.0954 -0.0816,0.0345 -0.16203,0.0718 -0.23973,0.11405 -0.0777,0.0423 -0.15264,0.0897 -0.22576,0.13965 -0.0728,0.0498 -0.14388,0.10211 -0.2118,0.15827 -0.069,0.057 -0.13475,0.11797 -0.19784,0.18154 -0.0627,0.0632 -0.1228,0.12899 -0.17921,0.19783 -0.0556,0.0678 -0.10761,0.13862 -0.15594,0.2118 -0.0477,0.0723 -0.0919,0.14695 -0.13267,0.22344 -0.0412,0.0772 -0.0789,0.15634 -0.11172,0.2374 -0.033,0.0814 -0.0611,0.16477 -0.0861,0.24904 -0.0255,0.0859 -0.0478,0.1728 -0.0652,0.26067 -0.018,0.0907 -0.0308,0.18255 -0.0396,0.27464 -0.009,0.0952 -0.0139,0.19075 -0.0186,0.28628"
       style="fill:none;stroke:#000000"
       id="path96" />
    <path
       d="m 580.97203,611.62981 c -0.003,-0.0591 -0.005,-0.11818 -0.0116,-0.17695 -0.006,-0.051 -0.0144,-0.10174 -0.0279,-0.15129 -0.0122,-0.0448 -0.0284,-0.0887 -0.0489,-0.13033 -0.0182,-0.0369 -0.0398,-0.0722 -0.0652,-0.10474 -0.0237,-0.0304 -0.0507,-0.0586 -0.0815,-0.0815 -0.0312,-0.0232 -0.0662,-0.041 -0.10241,-0.0559 -0.0384,-0.0157 -0.0782,-0.0281 -0.1187,-0.0349 -0.0451,-0.008 -0.0912,-0.008 -0.13732,-0.009"
       style="fill:none;stroke:#000000"
       id="path97" />
    <path
       d="m 580.37853,610.88496 c -0.0654,0.006 -0.1309,0.0118 -0.19318,0.0303 -0.0544,0.0161 -0.10633,0.0417 -0.15361,0.0745 -0.0456,0.0316 -0.0868,0.0697 -0.1187,0.11405 -0.0345,0.0479 -0.058,0.1031 -0.0815,0.15827"
       style="fill:none;stroke:#000000"
       id="path98" />
    <path
       d="m 579.83158,611.26201 c -0.007,0.0255 -0.0138,0.0509 -0.0186,0.0768 -0.005,0.0246 -0.007,0.0495 -0.009,0.0745 -0.003,0.0326 -0.004,0.0652 -0.005,0.0978 -10e-4,0.0504 -5.3e-4,0.10084 0,0.15128"
       style="fill:none;stroke:#000000"
       id="path99" />
    <path
       style="fill:none;stroke:#000000"
       d="m 579.79922,611.6622 v 9.195"
       id="path100" />
    <path
       d="m 579.79899,620.85727 c 8.7e-4,0.0586 0.002,0.11712 0.007,0.17543 0.005,0.0517 0.0127,0.10324 0.0256,0.15361 0.0114,0.0448 0.0266,0.0886 0.0465,0.13034 0.0177,0.0372 0.0392,0.0727 0.0652,0.10473 0.0242,0.0299 0.0524,0.0569 0.0838,0.0791 0.0315,0.0223 0.0662,0.04 0.10241,0.0535 0.0398,0.0149 0.0814,0.0248 0.12336,0.0303 0.047,0.006 0.0945,0.007 0.14197,0.007"
       style="fill:none;stroke:#000000"
       id="path101" />
    <path
       d="m 580.39482,621.59129 c 0.046,-4.1e-4 0.0919,-8.2e-4 0.13732,-0.007 0.0404,-0.005 0.0804,-0.0155 0.1187,-0.0303 0.0355,-0.0136 0.0694,-0.0312 0.10009,-0.0535 0.0307,-0.0223 0.058,-0.0493 0.0815,-0.0791 0.0252,-0.0321 0.0459,-0.0676 0.0628,-0.10473 0.019,-0.0418 0.0332,-0.0857 0.0442,-0.13034 0.0125,-0.0505 0.0208,-0.10193 0.0256,-0.15361 0.005,-0.0588 0.006,-0.11782 0.007,-0.17689"
       style="fill:none;stroke:#000000"
       id="path102" />
    <path
       style="fill:none;stroke:#000000"
       d="m 580.97222,620.8562 v -4.627"
       id="path103" />
    <path
       style="fill:none;stroke:#000000"
       d="m 580.97222,616.2292 h 5.083"
       id="path104" />
    <path
       style="fill:none;stroke:#000000"
       d="m 586.05522,616.2292 v 4.563"
       id="path105" />
    <path
       d="m 586.05521,620.79231 c -5.2e-4,0.0545 -10e-4,0.10907 0,0.16358 6.4e-4,0.0334 0.002,0.0668 0.005,0.10008 0.002,0.0234 0.005,0.0468 0.009,0.0698 0.005,0.0243 0.0117,0.0483 0.0186,0.0722"
       style="fill:none;stroke:#000000"
       id="path106" />
    <path
       d="m 586.0878,621.19795 c 0.02,0.0573 0.04,0.11464 0.0721,0.16525 0.0299,0.0471 0.0703,0.0884 0.11637,0.12102 0.048,0.034 0.10219,0.0585 0.15827,0.0745 0.065,0.0185 0.13259,0.0256 0.20016,0.0326"
       style="fill:none;stroke:#000000"
       id="path107" />
    <path
       d="m 586.63475,621.59129 c 0.0491,-10e-4 0.0982,-0.002 0.14663,-0.009 0.0428,-0.006 0.0852,-0.017 0.12568,-0.0326 0.0371,-0.0143 0.0726,-0.0326 0.10474,-0.0559 0.0308,-0.0222 0.0584,-0.049 0.0815,-0.0791 0.025,-0.0326 0.0446,-0.0692 0.0605,-0.10706 0.0182,-0.0436 0.0315,-0.089 0.0419,-0.135 0.0125,-0.0552 0.0208,-0.11127 0.0256,-0.16757 0.006,-0.0657 0.006,-0.13179 0.007,-0.19784"
       style="fill:none;stroke:#000000"
       id="path108" />
    <path
       style="fill:none;stroke:#000000"
       d="m 587.22822,620.8072 v -9.177"
       id="path109" />
    <path
       d="m 587.22825,611.62981 c -7.3e-4,-0.0599 -10e-4,-0.11974 -0.007,-0.17928 -0.005,-0.0517 -0.0132,-0.10309 -0.0256,-0.15361 -0.011,-0.0446 -0.0251,-0.0886 -0.0442,-0.13034 -0.017,-0.0371 -0.0379,-0.0724 -0.0628,-0.10473 -0.0236,-0.0305 -0.0508,-0.0583 -0.0815,-0.0815 -0.0305,-0.023 -0.0645,-0.0414 -0.10008,-0.0559 -0.0382,-0.0156 -0.0782,-0.0267 -0.1187,-0.0326 -0.0453,-0.007 -0.0913,-0.007 -0.13732,-0.007"
       style="fill:none;stroke:#000000"
       id="path110" />
    <path
       d="m 586.65104,610.88496 c -0.0453,0.003 -0.0905,0.006 -0.13499,0.014 -0.0406,0.007 -0.0805,0.0191 -0.1187,0.0349 -0.0376,0.0155 -0.0736,0.035 -0.10706,0.0582 -0.034,0.0235 -0.0653,0.0509 -0.0931,0.0815 -0.0277,0.0305 -0.0519,0.0642 -0.0721,0.10008 -0.0204,0.0361 -0.0369,0.0744 -0.0489,0.11405 -0.0126,0.0416 -0.0204,0.0847 -0.0233,0.12801 -0.003,0.048 -4.4e-4,0.0961 0.002,0.1443"
       style="fill:none;stroke:#000000"
       id="path111" />
    <path
       style="fill:none;stroke:#000000"
       d="m 586.05522,611.5602 v 0.034"
       id="path112" />
    <path
       style="fill:none;stroke:#000000"
       d="m 586.05522,611.5942 v 3.462"
       id="path113" />
    <path
       style="fill:none;stroke:#000000"
       d="m 586.05522,615.0562 h -5.083"
       id="path114" />
    <path
       style="fill:none;stroke:#000000"
       d="m 580.97222,615.0562 v -3.426"
       id="path115" />
    <path
       d="m 599.81103,612.20696 c 0.0697,-0.002 0.13946,-0.003 0.20896,-0.009 0.061,-0.005 0.12189,-0.014 0.18154,-0.0279 0.0516,-0.0121 0.10235,-0.0281 0.15128,-0.0489 0.0443,-0.0188 0.087,-0.0414 0.12569,-0.0698 0.0354,-0.026 0.0673,-0.0568 0.0954,-0.0908 0.0277,-0.0335 0.0517,-0.0701 0.0698,-0.10939 0.0191,-0.0413 0.0318,-0.0855 0.0396,-0.13034 0.009,-0.05 0.0113,-0.10063 0.014,-0.15129"
       style="fill:none;stroke:#000000"
       id="path116" />
    <path
       d="m 600.69728,611.56923 c -0.003,-0.0538 -0.007,-0.10757 -0.0163,-0.16059 -0.008,-0.0469 -0.0211,-0.0933 -0.0396,-0.13732 -0.0176,-0.0421 -0.0403,-0.082 -0.0675,-0.1187 -0.0262,-0.0354 -0.0567,-0.0677 -0.0908,-0.0954 -0.0362,-0.0295 -0.0766,-0.054 -0.1187,-0.0745 -0.0456,-0.0222 -0.0932,-0.0398 -0.14197,-0.0535 -0.0556,-0.0156 -0.11258,-0.0261 -0.16991,-0.0326 -0.0641,-0.007 -0.12865,-0.009 -0.19318,-0.0116"
       style="fill:none;stroke:#000000"
       id="path117" />
    <path
       style="fill:none;stroke:#000000"
       d="m 599.85922,610.8852 h -5.617"
       id="path118" />
    <path
       d="m 594.24189,610.88496 c -0.0742,2.4e-4 -0.14836,4.9e-4 -0.2221,0.007 -0.0641,0.006 -0.12794,0.016 -0.19085,0.0303 -0.0554,0.0125 -0.11008,0.028 -0.16293,0.0489 -0.0456,0.018 -0.0898,0.0399 -0.13033,0.0675 -0.0378,0.0257 -0.0723,0.0562 -0.10241,0.0908 -0.0288,0.0331 -0.0535,0.0698 -0.0721,0.10939 -0.0194,0.0412 -0.0321,0.0855 -0.0396,0.13034 -0.008,0.05 -0.01,0.10063 -0.0116,0.15129"
       style="fill:none;stroke:#000000"
       id="path119" />
    <path
       d="m 593.30991,611.52036 c 0.002,0.0539 0.004,0.10788 0.014,0.16059 0.009,0.047 0.0233,0.0929 0.0419,0.13732 0.0175,0.0419 0.0384,0.0824 0.0652,0.1187 0.0263,0.0358 0.0583,0.0675 0.0931,0.0954 0.0374,0.0301 0.0781,0.0558 0.12103,0.0768 0.0468,0.0228 0.0963,0.04 0.14663,0.0535 0.0566,0.0152 0.1142,0.026 0.17223,0.0326 0.0656,0.007 0.13172,0.01 0.19783,0.0116"
       style="fill:none;stroke:#000000"
       id="path120" />
    <path
       style="fill:none;stroke:#000000"
       d="m 594.16222,612.2072 h 2.171"
       id="path121" />
    <path
       style="fill:none;stroke:#000000"
       d="m 596.33322,612.2072 v 8.488"
       id="path122" />
    <path
       d="m 596.33347,620.69523 a 2.755758,2.755758 0 0 0 0.0159,0.43757"
       style="fill:none;stroke:#000000"
       id="path123" />
    <path
       d="m 596.34958,621.13278 c 0.0104,0.0324 0.0207,0.0647 0.0349,0.0954 0.014,0.0303 0.0317,0.0589 0.0512,0.0861 0.0196,0.0274 0.0412,0.0534 0.0652,0.0768 0.0257,0.025 0.0541,0.0469 0.0838,0.0675 0.0591,0.041 0.12301,0.0766 0.19085,0.0978 0.0701,0.0219 0.14445,0.0284 0.21879,0.0349"
       style="fill:none;stroke:#000000"
       id="path124" />
    <path
       d="m 596.99429,621.59129 c 0.0659,-0.005 0.13172,-0.0101 0.1955,-0.0256 0.0568,-0.0138 0.11187,-0.0358 0.16293,-0.0652 0.0501,-0.0288 0.0963,-0.0648 0.13499,-0.10707 0.0404,-0.0442 0.0726,-0.0954 0.10473,-0.14663"
       style="fill:none;stroke:#000000"
       id="path125" />
    <path
       d="m 597.59244,621.24682 c 0.0107,-0.0269 0.0215,-0.0539 0.0303,-0.0815 0.009,-0.0289 0.0163,-0.0585 0.0209,-0.0884 0.006,-0.04 0.008,-0.0805 0.009,-0.12103 0.002,-0.0606 0.002,-0.12106 0.002,-0.18154"
       style="fill:none;stroke:#000000"
       id="path126" />
    <path
       style="fill:none;stroke:#000000"
       d="m 597.65522,620.7742 v -8.567"
       id="path127" />
    <path
       style="fill:none;stroke:#000000"
       d="m 597.65522,612.2072 h 2.156"
       id="path128" />
    <path
       style="fill:none;stroke:#000000"
       d="m 606.16422,610.7362 h -10e-4"
       id="path129" />
    <path
       d="m 606.16334,610.736 c -0.10767,0.005 -0.21533,0.009 -0.32237,0.0209 -0.10954,0.0118 -0.21843,0.0309 -0.32584,0.0559 -0.11011,0.0256 -0.21865,0.0573 -0.32585,0.0931 -0.11116,0.0371 -0.22087,0.0787 -0.32817,0.12568 -0.1087,0.0476 -0.21493,0.10089 -0.31886,0.15827 -0.10186,0.0562 -0.20151,0.11641 -0.29792,0.18154 -0.0951,0.0642 -0.18696,0.13326 -0.27464,0.20714 -0.0874,0.0736 -0.17052,0.15201 -0.25369,0.23042"
       style="fill:none;stroke:#000000"
       id="path130" />
    <path
       d="m 603.716,611.80896 c -0.10172,0.12178 -0.20344,0.24357 -0.29559,0.3724 -0.0954,0.13336 -0.18052,0.27429 -0.25835,0.41894 -0.081,0.15054 -0.15408,0.30512 -0.21878,0.46316 -0.0685,0.16738 -0.12763,0.33864 -0.17921,0.51205 -0.0543,0.1826 -0.1003,0.36757 -0.13965,0.55393 -0.0415,0.19648 -0.0756,0.39449 -0.10241,0.5935 -0.0282,0.20939 -0.0483,0.41989 -0.0605,0.63075 -0.0129,0.22239 -0.0169,0.44519 -0.0209,0.66798"
       style="fill:none;stroke:#000000"
       id="path131" />
    <path
       d="m 602.44055,616.02167 c 0.003,0.22585 0.006,0.4517 0.0163,0.67729 0.01,0.2122 0.026,0.42418 0.0489,0.6354 0.0214,0.19779 0.0486,0.39492 0.0815,0.59117 0.0309,0.1851 0.0669,0.36941 0.11172,0.55161 0.0421,0.17119 0.0921,0.34051 0.14895,0.50739 0.0534,0.15673 0.11294,0.31131 0.17922,0.46316 0.0632,0.14482 0.13257,0.28715 0.2118,0.4236 0.0755,0.13002 0.15994,0.2547 0.24438,0.37938"
       style="fill:none;stroke:#000000"
       id="path132" />
    <path
       d="m 603.48325,620.25067 c 0.0823,0.0953 0.16459,0.19064 0.25369,0.27929 0.0904,0.0899 0.18777,0.17299 0.28861,0.25137 0.10344,0.0804 0.21053,0.15588 0.32119,0.22576 0.11514,0.0727 0.23416,0.13939 0.3561,0.20017 0.12134,0.0605 0.24558,0.1151 0.3724,0.16292 0.12263,0.0462 0.24769,0.0861 0.37472,0.1187 0.12258,0.0315 0.247,0.0562 0.37239,0.0721 0.12427,0.0158 0.2495,0.023 0.37472,0.0303"
       style="fill:none;stroke:#000000"
       id="path133" />
    <path
       d="m 606.19709,621.59175 a 3.454105,3.454105 0 0 0 2.25531,-0.9198"
       style="fill:none;stroke:#000000"
       id="path134" />
    <path
       d="m 608.45238,620.67194 c 0.11438,-0.12366 0.22875,-0.24733 0.33283,-0.37938 0.10717,-0.13597 0.20342,-0.28083 0.29093,-0.43058 0.091,-0.15568 0.17251,-0.31664 0.24439,-0.48178 0.0756,-0.17379 0.1406,-0.3522 0.19783,-0.53299 0.0609,-0.19228 0.11299,-0.38725 0.15594,-0.58419 0.0458,-0.21 0.0812,-0.42224 0.10939,-0.6354 0.0302,-0.22802 0.0522,-0.4571 0.0652,-0.6866 0.0139,-0.24562 0.0174,-0.49171 0.021,-0.73781"
       style="fill:none;stroke:#000000"
       id="path135" />
    <path
       d="m 609.86981,616.20321 c -3.7e-4,-0.13658 -7.4e-4,-0.27316 -0.005,-0.40963 -0.004,-0.13119 -0.0108,-0.26228 -0.0186,-0.39334 -0.007,-0.12584 -0.0157,-0.25164 -0.0279,-0.37705 -0.0118,-0.12133 -0.0275,-0.24228 -0.0442,-0.36309 -0.016,-0.11589 -0.033,-0.23165 -0.0535,-0.34679 -0.0197,-0.11069 -0.0426,-0.22081 -0.0675,-0.3305 -0.024,-0.1061 -0.0499,-0.21179 -0.0791,-0.31653 -0.0282,-0.10092 -0.0595,-0.20094 -0.0931,-0.30024 -0.0323,-0.0956 -0.0667,-0.19054 -0.10473,-0.28396 -0.0368,-0.0904 -0.0771,-0.17931 -0.1187,-0.26765 -0.0404,-0.0857 -0.0821,-0.1709 -0.12801,-0.2537 -0.0449,-0.081 -0.0939,-0.15963 -0.14431,-0.2374 -0.0492,-0.0759 -0.0997,-0.15092 -0.15361,-0.22344 -0.053,-0.0712 -0.10924,-0.14008 -0.16758,-0.20714 -0.0573,-0.0659 -0.11663,-0.13008 -0.17921,-0.19085 -0.0622,-0.0604 -0.12771,-0.1175 -0.19318,-0.17456"
       style="fill:none;stroke:#000000"
       id="path136" />
    <path
       d="m 608.29179,611.52734 c -0.079,-0.0602 -0.15799,-0.12051 -0.23973,-0.17689 -0.0806,-0.0556 -0.16389,-0.10744 -0.24904,-0.15594 -0.0851,-0.0485 -0.17201,-0.0936 -0.26067,-0.13499 -0.0892,-0.0417 -0.18008,-0.0796 -0.27232,-0.11405 -0.0911,-0.034 -0.18343,-0.0645 -0.27696,-0.0908 -0.0913,-0.0257 -0.18376,-0.0473 -0.27697,-0.0652 -0.0909,-0.0174 -0.18256,-0.0312 -0.27464,-0.0396 -0.092,-0.008 -0.1845,-0.0111 -0.27697,-0.014"
       style="fill:none;stroke:#000000"
       id="path137" />
    <path
       d="m 607.4539,612.6003 c 0.0891,0.0914 0.1781,0.18283 0.25835,0.28162 0.083,0.10214 0.15651,0.21215 0.22344,0.32585 0.0703,0.11951 0.13338,0.24308 0.18852,0.37006 0.0593,0.13643 0.1094,0.2768 0.15361,0.41895 0.0474,0.15249 0.088,0.30704 0.12103,0.46316 0.0354,0.16772 0.0621,0.33725 0.0838,0.50739 0.0235,0.18405 0.0413,0.36881 0.0512,0.55393 0.0107,0.19989 0.0123,0.40019 0.014,0.60049"
       style="fill:none;stroke:#000000"
       id="path138" />
    <path
       d="m 608.54781,616.12175 c -0.003,0.19479 -0.005,0.38958 -0.014,0.58419 -0.008,0.17954 -0.0205,0.35892 -0.0396,0.53765 -0.0176,0.16444 -0.0405,0.32833 -0.0698,0.49109 -0.0269,0.14935 -0.0591,0.29776 -0.0978,0.44455 -0.0358,0.13603 -0.0771,0.27068 -0.12568,0.40265 -0.0457,0.1243 -0.0978,0.24621 -0.15594,0.36541 -0.0548,0.11225 -0.11485,0.22209 -0.18387,0.32584 -0.066,0.0991 -0.14004,0.19271 -0.21413,0.28628"
       style="fill:none;stroke:#000000"
       id="path139" />
    <path
       d="m 607.64708,619.55941 c -0.0494,0.0508 -0.0987,0.10162 -0.15128,0.14896 -0.0533,0.048 -0.10976,0.0924 -0.16758,0.13499 -0.0581,0.0428 -0.11755,0.0838 -0.17922,0.12103 -0.0632,0.0382 -0.12884,0.0726 -0.1955,0.10474 -0.0655,0.0316 -0.132,0.0611 -0.20016,0.0861 -0.0647,0.0237 -0.13092,0.0434 -0.19784,0.0605 -0.0653,0.0167 -0.1312,0.031 -0.19783,0.0396 -0.064,0.008 -0.12858,0.0111 -0.19318,0.014"
       style="fill:none;stroke:#000000"
       id="path140" />
    <path
       d="m 606.16449,620.26929 c -0.0747,-0.004 -0.14941,-0.009 -0.22344,-0.0186 -0.0746,-0.0102 -0.1485,-0.0262 -0.22111,-0.0466 -0.0752,-0.0211 -0.14903,-0.0469 -0.22111,-0.0768 -0.0756,-0.0314 -0.14939,-0.0674 -0.2211,-0.10706 -0.073,-0.0403 -0.14383,-0.0845 -0.2118,-0.13267 -0.0671,-0.0476 -0.13144,-0.0991 -0.19318,-0.15361 -0.0622,-0.0549 -0.12176,-0.11278 -0.17689,-0.17456 -0.0558,-0.0625 -0.10703,-0.12901 -0.15827,-0.19551"
       style="fill:none;stroke:#000000"
       id="path141" />
    <path
       d="m 604.53759,619.3639 c -0.0643,-0.0956 -0.12859,-0.19128 -0.18619,-0.29093 -0.0602,-0.10419 -0.11315,-0.21275 -0.1606,-0.32351 -0.0499,-0.11654 -0.0938,-0.23551 -0.13267,-0.35611 -0.0412,-0.12794 -0.0768,-0.25773 -0.10706,-0.38868 -0.0324,-0.14012 -0.0588,-0.28157 -0.0815,-0.4236 -0.0247,-0.15532 -0.045,-0.31133 -0.0605,-0.46782 -0.0168,-0.16872 -0.0281,-0.33799 -0.0349,-0.50739 -0.007,-0.18299 -0.01,-0.36613 -0.0116,-0.54928"
       style="fill:none;stroke:#000000"
       id="path142" />
    <path
       d="m 603.76255,616.05658 c 0.003,-0.18475 0.006,-0.3695 0.0163,-0.55393 0.01,-0.17343 0.0252,-0.34658 0.0466,-0.51903 0.0201,-0.16221 0.0451,-0.32382 0.0768,-0.48411 0.0297,-0.15027 0.0654,-0.2994 0.10707,-0.44687 0.0389,-0.13772 0.0831,-0.274 0.13499,-0.40731 0.0476,-0.12232 0.10166,-0.24214 0.16292,-0.35843 0.0566,-0.10741 0.11932,-0.2118 0.19086,-0.30955 0.067,-0.0916 0.14172,-0.17728 0.21645,-0.26301"
       style="fill:none;stroke:#000000"
       id="path143" />
    <path
       d="m 604.71448,612.71434 c 0.097,-0.095 0.1999,-0.18411 0.31095,-0.26162 0.11105,-0.0775 0.23023,-0.14346 0.35362,-0.20065 0.1234,-0.0572 0.25101,-0.10565 0.38248,-0.138 0.13148,-0.0323 0.26681,-0.0486 0.40235,-0.056"
       style="fill:none;stroke:#000000"
       id="path144" />
    <path
       d="m 606.16388,612.05803 c 0.11876,0.006 0.23765,0.0183 0.35328,0.0448 0.11562,0.0265 0.22798,0.0674 0.33732,0.11508 0.10933,0.0477 0.21566,0.10224 0.31505,0.16715 0.0994,0.0649 0.19185,0.14021 0.28437,0.21521"
       style="fill:none;stroke:#000000"
       id="path145" />
    <path
       d="m 571.83907,624.92903 c -0.03,-0.0561 -0.06,-0.11215 -0.10008,-0.16059 -0.0381,-0.0461 -0.0855,-0.0853 -0.13732,-0.11638 -0.0529,-0.0317 -0.11054,-0.0551 -0.1699,-0.0698 -0.0675,-0.0168 -0.13735,-0.0223 -0.20715,-0.0279"
       style="fill:none;stroke:#000000"
       id="path146" />
    <path
       d="m 571.22462,624.55431 c -0.053,-9.8e-4 -0.10591,-0.002 -0.15827,0.005 -0.0461,0.006 -0.0917,0.0176 -0.13499,0.0349 -0.0404,0.0162 -0.0787,0.0373 -0.11404,0.0628 -0.0357,0.0258 -0.0684,0.0562 -0.0954,0.0908 -0.0287,0.0367 -0.051,0.0782 -0.0698,0.12103 -0.0213,0.0482 -0.0381,0.0981 -0.0512,0.14895 -0.0149,0.058 -0.0248,0.1173 -0.0303,0.17689 -0.006,0.068 -0.007,0.13643 -0.007,0.20482"
       style="fill:none;stroke:#000000"
       id="path147" />
    <path
       style="fill:none;stroke:#000000"
       d="m 570.56322,625.3992 v 5.661"
       id="path148" />
    <path
       d="m 570.56362,631.06006 c -6e-4,0.0883 -10e-4,0.17662 -0.005,0.26484 -0.003,0.0823 -0.009,0.16461 -0.0163,0.24671 -0.007,0.077 -0.0153,0.15382 -0.0256,0.23042 -0.01,0.0724 -0.0212,0.14465 -0.0349,0.21645 -0.0126,0.0657 -0.027,0.13095 -0.0442,0.19551 -0.0163,0.0612 -0.0351,0.12167 -0.0559,0.18154 -0.0194,0.056 -0.0405,0.11144 -0.0652,0.16525 -0.0228,0.0498 -0.0487,0.0982 -0.0745,0.14663"
       style="fill:none;stroke:#000000"
       id="path149" />
    <path
       d="m 570.24243,632.70741 c -0.0589,0.091 -0.11778,0.18198 -0.18387,0.26766 -0.0657,0.0852 -0.1386,0.16517 -0.21645,0.23973 -0.0777,0.0744 -0.16026,0.14335 -0.24671,0.20714 -0.0885,0.0653 -0.1811,0.12519 -0.27697,0.17922 -0.0962,0.0542 -0.19572,0.10253 -0.29792,0.1443 -0.10157,0.0415 -0.20577,0.0766 -0.31188,0.10473 -0.10554,0.028 -0.21296,0.0493 -0.32119,0.0629 -0.11038,0.0138 -0.2216,0.0197 -0.33282,0.0256"
       style="fill:none;stroke:#000000"
       id="path150" />
    <path
       d="m 568.05462,633.93864 c -0.0855,-0.005 -0.17089,-0.01 -0.25602,-0.0186 -0.082,-0.008 -0.16369,-0.0205 -0.24439,-0.0372 -0.0785,-0.0163 -0.15604,-0.037 -0.23274,-0.0605 -0.0756,-0.0232 -0.15039,-0.049 -0.22344,-0.0791 -0.0732,-0.0302 -0.14456,-0.0646 -0.21413,-0.10241 -0.0695,-0.0377 -0.13715,-0.0788 -0.20249,-0.12335 -0.0659,-0.0449 -0.12948,-0.0933 -0.19085,-0.1443 -0.063,-0.0523 -0.1236,-0.10743 -0.18154,-0.16526 -0.0579,-0.0578 -0.11316,-0.11838 -0.16525,-0.18154 -0.0512,-0.062 -0.0993,-0.12655 -0.1443,-0.19318 -0.0443,-0.0655 -0.0855,-0.13305 -0.12336,-0.20249 -0.0379,-0.0695 -0.0724,-0.14093 -0.10241,-0.21412 -0.0303,-0.0738 -0.0561,-0.14936 -0.0791,-0.22577 -0.0236,-0.0782 -0.0443,-0.15736 -0.0605,-0.2374 -0.0167,-0.0823 -0.0288,-0.16551 -0.0372,-0.24904 -0.009,-0.0859 -0.0137,-0.17213 -0.0186,-0.25834"
       style="fill:none;stroke:#000000"
       id="path151" />
    <path
       d="m 565.57773,631.4459 a 2.352317,2.352317 0 0 0 -0.0482,-0.59818"
       style="fill:none;stroke:#000000"
       id="path152" />
    <path
       d="m 565.52932,630.84777 c -0.0244,-0.0517 -0.0487,-0.10334 -0.0838,-0.14663 -0.0381,-0.0471 -0.0888,-0.0842 -0.14197,-0.11638 -0.0561,-0.0339 -0.115,-0.0622 -0.17689,-0.0791 -0.0623,-0.017 -0.12776,-0.0225 -0.19318,-0.0279"
       style="fill:none;stroke:#000000"
       id="path153" />
    <path
       d="m 564.93349,630.4777 c -0.0694,0.006 -0.13873,0.0119 -0.20482,0.0303 -0.0662,0.0184 -0.12903,0.0492 -0.18852,0.0861 -0.0574,0.0356 -0.11164,0.077 -0.15361,0.12802 -0.0388,0.0472 -0.0671,0.10273 -0.0954,0.15826"
       style="fill:none;stroke:#000000"
       id="path154" />
    <path
       d="m 564.29111,630.88035 c -0.011,0.0324 -0.022,0.0647 -0.0303,0.0978 -0.0101,0.0404 -0.0162,0.0818 -0.0209,0.12335 -0.006,0.0503 -0.01,0.10077 -0.0116,0.15129 -0.002,0.0597 -0.002,0.11944 -0.002,0.17921"
       style="fill:none;stroke:#000000"
       id="path155" />
    <path
       d="m 564.22594,631.43196 c 0.006,0.13441 0.0124,0.26882 0.0256,0.40265 0.0128,0.12961 0.0323,0.25867 0.0582,0.38636 0.0252,0.12397 0.0565,0.24665 0.0931,0.36774 0.0357,0.1182 0.0765,0.23489 0.12335,0.34912 0.0462,0.11274 0.0984,0.22308 0.15594,0.3305 0.0574,0.10712 0.1203,0.21133 0.18853,0.31188 0.0694,0.10223 0.14429,0.20069 0.22344,0.29559 0.0802,0.0962 0.16481,0.18874 0.25369,0.27696 0.0889,0.0883 0.18214,0.17221 0.27929,0.25137 0.0956,0.0779 0.19494,0.1511 0.29792,0.21878 0.10232,0.0673 0.20821,0.129 0.31653,0.1862 0.10842,0.0572 0.21927,0.10991 0.33283,0.15594 0.11484,0.0465 0.23245,0.0863 0.35145,0.12103 0.12199,0.0356 0.24545,0.0659 0.37006,0.0908 0.12779,0.0255 0.25679,0.0453 0.38636,0.0582 0.13458,0.0134 0.26978,0.0195 0.40498,0.0256"
       style="fill:none;stroke:#000000"
       id="path156" />
    <path
       d="m 568.0872,635.26064 c 0.10017,-0.003 0.20034,-0.007 0.30024,-0.014 0.0973,-0.007 0.19436,-0.0184 0.29094,-0.0326 0.0944,-0.0139 0.18841,-0.0307 0.28162,-0.0512 0.0925,-0.0203 0.18418,-0.0443 0.27464,-0.0721 0.0896,-0.0276 0.17795,-0.0591 0.26533,-0.0931 0.0865,-0.0337 0.17207,-0.0698 0.25602,-0.10939 0.0848,-0.04 0.16787,-0.0835 0.24904,-0.13034 0.0819,-0.0472 0.16173,-0.0979 0.23973,-0.15128 0.0779,-0.0533 0.15387,-0.10927 0.22809,-0.16758 0.0736,-0.0578 0.14547,-0.11795 0.21413,-0.18154 0.068,-0.063 0.1329,-0.12941 0.1955,-0.19783 0.0628,-0.0686 0.1233,-0.13928 0.18155,-0.2118 0.0587,-0.0731 0.11511,-0.14812 0.16757,-0.22577 0.053,-0.0785 0.10204,-0.15968 0.14896,-0.24205 0.0478,-0.0839 0.0934,-0.169 0.13499,-0.25602 0.0424,-0.0887 0.0805,-0.17933 0.1187,-0.26999"
       style="fill:none;stroke:#000000"
       id="path157" />
    <path
       d="m 571.63425,632.85404 c 0.0423,-0.1218 0.0845,-0.24359 0.11871,-0.36774 0.0337,-0.12231 0.0596,-0.2469 0.0791,-0.37239 0.0206,-0.13269 0.0341,-0.26638 0.0419,-0.40033 0.009,-0.1534 0.0103,-0.30711 0.0116,-0.46083"
       style="fill:none;stroke:#000000"
       id="path158" />
    <path
       style="fill:none;stroke:#000000"
       d="m 571.88522,631.2532 v -5.869"
       id="path159" />
    <path
       d="m 571.88562,625.38377 c 7e-5,-0.0577 1.4e-4,-0.11548 -0.002,-0.17312 -0.002,-0.0404 -0.005,-0.0808 -0.009,-0.12102 -0.003,-0.0289 -0.007,-0.0578 -0.014,-0.0861 -0.006,-0.0251 -0.0133,-0.0498 -0.0209,-0.0745"
       style="fill:none;stroke:#000000"
       id="path160" />
    <path
       d="m 579.9163,625.87631 c 0.0712,-2.8e-4 0.14241,-5.6e-4 0.21319,-0.007 0.0611,-0.006 0.12182,-0.0157 0.18155,-0.0303 0.0525,-0.0128 0.10428,-0.0292 0.15361,-0.0512 0.0435,-0.0195 0.0852,-0.0434 0.12335,-0.0722 0.0365,-0.0275 0.0698,-0.0594 0.0978,-0.0954 0.0275,-0.0355 0.0498,-0.0749 0.0675,-0.11638 0.0188,-0.044 0.0322,-0.0903 0.0396,-0.13732 0.008,-0.0529 0.009,-0.10675 0.009,-0.16059"
       style="fill:none;stroke:#000000"
       id="path161" />
    <path
       d="m 580.80213,625.206 c -8.6e-4,-0.0515 -0.002,-0.10289 -0.009,-0.15361 -0.007,-0.0462 -0.0194,-0.0917 -0.0372,-0.135 -0.0164,-0.0396 -0.0373,-0.0774 -0.0628,-0.11172 -0.0259,-0.0348 -0.0567,-0.0662 -0.0908,-0.0931 -0.0351,-0.0277 -0.0737,-0.0506 -0.11405,-0.0698 -0.0455,-0.0217 -0.0932,-0.0386 -0.14197,-0.0512 -0.0549,-0.0141 -0.11115,-0.0227 -0.16758,-0.0279 -0.065,-0.006 -0.13026,-0.008 -0.19551,-0.009"
       style="fill:none;stroke:#000000"
       id="path162" />
    <path
       style="fill:none;stroke:#000000"
       d="m 579.98322,624.5542 h -5.564"
       id="path163" />
    <path
       d="m 574.41884,624.55431 c -0.0764,-5.5e-4 -0.15285,-10e-4 -0.22903,0.005 -0.0643,0.005 -0.12836,0.0142 -0.19085,0.0303 -0.0538,0.0138 -0.10648,0.0326 -0.15594,0.0582 -0.0432,0.0224 -0.0839,0.0499 -0.1187,0.0838 -0.0346,0.0337 -0.0633,0.0737 -0.0861,0.11637 -0.0258,0.0485 -0.0441,0.10053 -0.0582,0.15361 -0.0164,0.0618 -0.0271,0.12501 -0.0326,0.18853 -0.006,0.0742 -0.006,0.14881 -0.005,0.22343"
       style="fill:none;stroke:#000000"
       id="path164" />
    <path
       style="fill:none;stroke:#000000"
       d="m 573.54322,625.4132 v 8.971"
       id="path165" />
    <path
       d="m 573.54277,634.38456 c -0.002,0.0765 -0.005,0.15291 0,0.22904 0.004,0.0641 0.0133,0.12802 0.0279,0.19085 0.0125,0.0537 0.0289,0.10666 0.0535,0.15594 0.0217,0.0434 0.0498,0.084 0.0838,0.1187 0.0339,0.0346 0.0737,0.0632 0.11638,0.0861 0.0477,0.0256 0.099,0.0441 0.15128,0.0582 0.0617,0.0166 0.12499,0.0272 0.18853,0.0326 0.0742,0.006 0.14882,0.005 0.22343,0.005"
       style="fill:none;stroke:#000000"
       id="path166" />
    <path
       style="fill:none;stroke:#000000"
       d="m 574.38722,635.2602 h 5.529"
       id="path167" />
    <path
       d="m 579.9163,635.26064 c 0.0774,-5.8e-4 0.15471,-10e-4 0.23181,-0.007 0.0664,-0.005 0.13267,-0.0139 0.19784,-0.0279 0.0562,-0.0121 0.11161,-0.0279 0.16525,-0.0489 0.0473,-0.0185 0.0932,-0.041 0.13499,-0.0698 0.038,-0.0262 0.0726,-0.0577 0.10241,-0.0931 0.029,-0.0346 0.0535,-0.073 0.0721,-0.11405 0.0195,-0.0428 0.0327,-0.0886 0.0396,-0.13499 0.008,-0.0522 0.007,-0.10526 0.007,-0.15827"
       style="fill:none;stroke:#000000"
       id="path168" />
    <path
       d="m 580.8673,634.60662 c -0.008,-0.0724 -0.0166,-0.14473 -0.0372,-0.21413 -0.0184,-0.0618 -0.0465,-0.12128 -0.0838,-0.17456 -0.0364,-0.0521 -0.0815,-0.0982 -0.13266,-0.13499 -0.0557,-0.04 -0.11864,-0.0689 -0.18155,-0.0978"
       style="fill:none;stroke:#000000"
       id="path169" />
    <path
       d="m 580.43206,633.98519 c -0.0253,-0.0103 -0.0506,-0.0207 -0.0768,-0.0279 -0.0258,-0.007 -0.0524,-0.0113 -0.0791,-0.014 -0.0372,-0.004 -0.0744,-0.004 -0.11172,-0.005 -0.0559,-5e-4 -0.11172,-2.5e-4 -0.16757,0"
       style="fill:none;stroke:#000000"
       id="path170" />
    <path
       style="fill:none;stroke:#000000"
       d="m 579.99722,633.9382 h -5.132"
       id="path171" />
    <path
       style="fill:none;stroke:#000000"
       d="m 574.86522,633.9382 v -4.04"
       id="path172" />
    <path
       style="fill:none;stroke:#000000"
       d="m 574.86522,629.8982 h 3.635"
       id="path173" />
    <path
       d="m 578.50059,629.89816 c 0.0721,-5.6e-4 0.14427,-10e-4 0.21613,-0.007 0.0618,-0.005 0.12341,-0.014 0.18387,-0.0279 0.0524,-0.0121 0.10395,-0.028 0.15362,-0.0489 0.0443,-0.0186 0.0871,-0.0413 0.12568,-0.0698 0.0358,-0.0265 0.0679,-0.058 0.0954,-0.0931 0.0273,-0.0349 0.0501,-0.0733 0.0675,-0.11404 0.0184,-0.0431 0.0308,-0.0888 0.0372,-0.135 0.007,-0.0523 0.007,-0.10528 0.007,-0.15826"
       style="fill:none;stroke:#000000"
       id="path174" />
    <path
       d="m 579.38703,629.24415 c -6.8e-4,-0.0538 -10e-4,-0.10764 -0.009,-0.1606 -0.007,-0.0468 -0.0197,-0.093 -0.0372,-0.13732 -0.0163,-0.0412 -0.0368,-0.0808 -0.0628,-0.11637 -0.0256,-0.035 -0.0567,-0.0661 -0.0908,-0.0931 -0.0359,-0.0285 -0.0752,-0.0525 -0.11637,-0.0722 -0.0454,-0.0217 -0.0933,-0.0382 -0.14198,-0.0512 -0.055,-0.0146 -0.11111,-0.0247 -0.16758,-0.0303 -0.0649,-0.006 -0.13019,-0.007 -0.1955,-0.007"
       style="fill:none;stroke:#000000"
       id="path175" />
    <path
       style="fill:none;stroke:#000000"
       d="m 578.56522,628.5762 h -3.7"
       id="path176" />
    <path
       style="fill:none;stroke:#000000"
       d="m 574.86522,628.5762 v -2.7"
       id="path177" />
    <path
       style="fill:none;stroke:#000000"
       d="m 574.86522,625.8762 h 5.051"
       id="path178" />
    <path
       d="m 588.93713,625.87631 c 0.0697,-0.002 0.13945,-0.003 0.20895,-0.009 0.061,-0.005 0.12189,-0.014 0.18154,-0.0279 0.0516,-0.0121 0.10236,-0.0281 0.15129,-0.0489 0.0442,-0.0188 0.087,-0.0414 0.12568,-0.0698 0.0354,-0.026 0.0673,-0.0568 0.0954,-0.0908 0.0277,-0.0335 0.0516,-0.0701 0.0698,-0.10939 0.0191,-0.0413 0.0318,-0.0855 0.0396,-0.13034 0.009,-0.05 0.0113,-0.10063 0.014,-0.15129"
       style="fill:none;stroke:#000000"
       id="path179" />
    <path
       d="m 589.82337,625.23858 c -0.003,-0.0538 -0.007,-0.10757 -0.0163,-0.16059 -0.008,-0.0469 -0.0211,-0.0933 -0.0396,-0.13732 -0.0176,-0.0421 -0.0403,-0.082 -0.0675,-0.1187 -0.0263,-0.0354 -0.0567,-0.0677 -0.0908,-0.0954 -0.0362,-0.0295 -0.0766,-0.054 -0.1187,-0.0745 -0.0456,-0.0222 -0.0932,-0.0398 -0.14198,-0.0535 -0.0556,-0.0156 -0.11258,-0.0261 -0.1699,-0.0326 -0.0641,-0.007 -0.12866,-0.009 -0.19318,-0.0116"
       style="fill:none;stroke:#000000"
       id="path180" />
    <path
       style="fill:none;stroke:#000000"
       d="m 588.98522,624.5542 h -5.617"
       id="path181" />
    <path
       d="m 583.36798,624.55431 c -0.0742,2.4e-4 -0.14835,4.9e-4 -0.2221,0.007 -0.0641,0.006 -0.12793,0.016 -0.19085,0.0303 -0.0554,0.0125 -0.11008,0.028 -0.16292,0.0489 -0.0456,0.018 -0.0898,0.0399 -0.13034,0.0675 -0.0378,0.0257 -0.0723,0.0562 -0.10241,0.0908 -0.0288,0.0331 -0.0535,0.0698 -0.0721,0.10939 -0.0194,0.0412 -0.0321,0.0855 -0.0396,0.13034 -0.008,0.05 -0.01,0.10063 -0.0116,0.15129"
       style="fill:none;stroke:#000000"
       id="path182" />
    <path
       d="m 582.43601,625.18971 c 0.002,0.0539 0.004,0.10788 0.014,0.16059 0.009,0.047 0.0233,0.0929 0.0419,0.13732 0.0175,0.0419 0.0384,0.0824 0.0652,0.1187 0.0263,0.0358 0.0583,0.0675 0.0931,0.0954 0.0374,0.0301 0.0781,0.0558 0.12103,0.0768 0.0468,0.0228 0.0963,0.04 0.14663,0.0535 0.0566,0.0152 0.1142,0.026 0.17223,0.0326 0.0656,0.007 0.13173,0.01 0.19784,0.0116"
       style="fill:none;stroke:#000000"
       id="path183" />
    <path
       style="fill:none;stroke:#000000"
       d="m 583.28822,625.8762 h 2.171"
       id="path184" />
    <path
       style="fill:none;stroke:#000000"
       d="m 585.45922,625.8762 v 8.488"
       id="path185" />
    <path
       d="m 585.45957,634.36457 a 2.755758,2.755758 0 0 0 0.0159,0.43758"
       style="fill:none;stroke:#000000"
       id="path186" />
    <path
       d="m 585.47567,634.80213 c 0.0104,0.0324 0.0207,0.0647 0.0349,0.0954 0.014,0.0302 0.0317,0.0589 0.0512,0.0861 0.0197,0.0274 0.0412,0.0534 0.0652,0.0768 0.0256,0.025 0.0541,0.0469 0.0838,0.0675 0.0591,0.041 0.123,0.0766 0.19085,0.0978 0.0701,0.0219 0.14444,0.0284 0.21878,0.0349"
       style="fill:none;stroke:#000000"
       id="path187" />
    <path
       d="m 586.12038,635.26064 c 0.0659,-0.005 0.13173,-0.0101 0.19551,-0.0256 0.0568,-0.0138 0.11187,-0.0358 0.16292,-0.0652 0.0501,-0.0288 0.0963,-0.0648 0.13499,-0.10707 0.0404,-0.0442 0.0726,-0.0954 0.10474,-0.14663"
       style="fill:none;stroke:#000000"
       id="path188" />
    <path
       d="m 586.71854,634.91617 c 0.0107,-0.0269 0.0215,-0.0539 0.0303,-0.0815 0.009,-0.0289 0.0163,-0.0585 0.0209,-0.0884 0.006,-0.04 0.008,-0.0805 0.009,-0.12103 0.002,-0.0606 0.002,-0.12106 0.002,-0.18154"
       style="fill:none;stroke:#000000"
       id="path189" />
    <path
       style="fill:none;stroke:#000000"
       d="m 586.78122,634.4432 v -8.567"
       id="path190" />
    <path
       style="fill:none;stroke:#000000"
       d="m 586.78122,625.8762 h 2.156"
       id="path191" />
    <path
       d="m 598.02354,625.87631 c 0.0697,-0.002 0.13946,-0.003 0.20896,-0.009 0.061,-0.005 0.12189,-0.014 0.18154,-0.0279 0.0516,-0.0121 0.10235,-0.0281 0.15128,-0.0489 0.0442,-0.0188 0.087,-0.0414 0.12569,-0.0698 0.0354,-0.026 0.0673,-0.0568 0.0954,-0.0908 0.0277,-0.0335 0.0516,-0.0701 0.0698,-0.10939 0.0191,-0.0413 0.0318,-0.0855 0.0396,-0.13034 0.009,-0.05 0.0113,-0.10063 0.014,-0.15129"
       style="fill:none;stroke:#000000"
       id="path192" />
    <path
       d="m 598.90979,625.23858 c -0.003,-0.0538 -0.007,-0.10757 -0.0163,-0.16059 -0.008,-0.0469 -0.0212,-0.0933 -0.0396,-0.13732 -0.0176,-0.0421 -0.0403,-0.082 -0.0675,-0.1187 -0.0262,-0.0354 -0.0567,-0.0677 -0.0908,-0.0954 -0.0362,-0.0295 -0.0766,-0.054 -0.1187,-0.0745 -0.0456,-0.0222 -0.0932,-0.0398 -0.14197,-0.0535 -0.0556,-0.0156 -0.11259,-0.0261 -0.16991,-0.0326 -0.0641,-0.007 -0.12865,-0.009 -0.19318,-0.0116"
       style="fill:none;stroke:#000000"
       id="path193" />
    <path
       style="fill:none;stroke:#000000"
       d="m 598.07222,624.5542 h -5.618"
       id="path194" />
    <path
       d="m 592.45439,624.55431 c -0.0742,2.4e-4 -0.14835,4.9e-4 -0.22209,0.007 -0.0641,0.006 -0.12794,0.016 -0.19085,0.0303 -0.0554,0.0125 -0.11008,0.028 -0.16293,0.0489 -0.0456,0.018 -0.0898,0.0399 -0.13033,0.0675 -0.0378,0.0257 -0.0723,0.0562 -0.10241,0.0908 -0.0288,0.0331 -0.0535,0.0698 -0.0721,0.10939 -0.0194,0.0412 -0.0321,0.0855 -0.0396,0.13034 -0.008,0.05 -0.01,0.10063 -0.0116,0.15129"
       style="fill:none;stroke:#000000"
       id="path195" />
    <path
       d="m 591.52242,625.18971 c 0.002,0.0539 0.004,0.10788 0.014,0.16059 0.009,0.047 0.0233,0.0929 0.0419,0.13732 0.0175,0.0419 0.0384,0.0824 0.0652,0.1187 0.0263,0.0358 0.0583,0.0675 0.0931,0.0954 0.0374,0.0301 0.0781,0.0558 0.12103,0.0768 0.0468,0.0228 0.0963,0.04 0.14663,0.0535 0.0566,0.0152 0.11419,0.026 0.17223,0.0326 0.0656,0.007 0.13172,0.01 0.19783,0.0116"
       style="fill:none;stroke:#000000"
       id="path196" />
    <path
       style="fill:none;stroke:#000000"
       d="m 592.37422,625.8762 h 2.172"
       id="path197" />
    <path
       style="fill:none;stroke:#000000"
       d="m 594.54622,625.8762 v 8.488"
       id="path198" />
    <path
       d="m 594.54598,634.36457 a 2.755758,2.755758 0 0 0 0.0159,0.43758"
       style="fill:none;stroke:#000000"
       id="path199" />
    <path
       d="m 594.56209,634.80213 c 0.0104,0.0324 0.0207,0.0647 0.0349,0.0954 0.014,0.0302 0.0317,0.0589 0.0512,0.0861 0.0197,0.0274 0.0412,0.0534 0.0652,0.0768 0.0256,0.025 0.0541,0.0469 0.0838,0.0675 0.0591,0.041 0.12301,0.0766 0.19085,0.0978 0.0701,0.0219 0.14444,0.0284 0.21878,0.0349"
       style="fill:none;stroke:#000000"
       id="path200" />
    <path
       d="m 595.20679,635.26064 c 0.0659,-0.005 0.13173,-0.0101 0.19551,-0.0256 0.0568,-0.0138 0.11187,-0.0358 0.16292,-0.0652 0.0501,-0.0288 0.0963,-0.0648 0.135,-0.10707 0.0404,-0.0442 0.0726,-0.0954 0.10473,-0.14663"
       style="fill:none;stroke:#000000"
       id="path201" />
    <path
       d="m 595.80495,634.91617 c 0.0107,-0.0269 0.0215,-0.0539 0.0303,-0.0815 0.009,-0.0289 0.0163,-0.0585 0.021,-0.0884 0.006,-0.04 0.008,-0.0805 0.009,-0.12103 0.002,-0.0606 0.002,-0.12106 0.002,-0.18154"
       style="fill:none;stroke:#000000"
       id="path202" />
    <path
       style="fill:none;stroke:#000000"
       d="m 595.86822,634.4432 v -8.567"
       id="path203" />
    <path
       style="fill:none;stroke:#000000"
       d="m 595.86822,625.8762 h 2.155"
       id="path204" />
  </g>
</svg>
